HIERARCHY
ROOT Hips
{
	OFFSET 0.00 0.00 0.00
	CHANNELS 6 Xposition Yposition Zposition Xrotation Yrotation Zrotation
	JOINT Spine
	{
		OFFSET 0.00000 1.15266 1.72900
		CHANNELS 3 Xrotation Yrotation Zrotation
		JOINT Spine1
		{
			OFFSET 0.00000 0.40032 2.27031
			CHANNELS 3 Xrotation Yrotation Zrotation
			JOINT Spine2
			{
				OFFSET 0.00000 0.20092 2.29656
				CHANNELS 3 Xrotation Yrotation Zrotation
				JOINT Spine3
				{
					OFFSET 0.00000 0.00000 2.30533
					CHANNELS 3 Xrotation Yrotation Zrotation
					JOINT Neck
					{
						OFFSET 0.00000 -0.86449 6.05149
						CHANNELS 3 Xrotation Yrotation Zrotation
						JOINT Head
						{
							OFFSET 0.00000 -0.55043 3.12167
							CHANNELS 3 Xrotation Yrotation Zrotation
							End Site
							{
								OFFSET 0.00000 0.00000 3.73175
							}
						}
					}
					JOINT RightShoulder
					{
						OFFSET -0.78828 -1.31380 4.25672
						CHANNELS 3 Xrotation Yrotation Zrotation
						JOINT RightArm
						{
							OFFSET -3.91513 0.00000 0.00000
							CHANNELS 3 Xrotation Yrotation Zrotation
							JOINT RightForeArm
							{
								OFFSET -6.91491 0.00000 0.00000
								CHANNELS 3 Xrotation Yrotation Zrotation
								JOINT RightHand
								{
									OFFSET -6.09622 0.00000 0.00000
									CHANNELS 3 Xrotation Yrotation Zrotation
									JOINT RightHandEnd
									{
										OFFSET -1.74995 0.00000 0.00000
										CHANNELS 3 Xrotation Yrotation Zrotation
										End Site
										{
											OFFSET -1.74995 0.00000 0.00000
										}
									}
									JOINT RightHandThumb1
									{
										OFFSET -0.69998 -1.16663 -0.46665
										CHANNELS 3 Yrotation Xrotation Zrotation
										End Site
										{
											OFFSET -1.69032 -0.45292 0.00000
										}
									}
								}
							}
						}
					}
					JOINT LeftShoulder
					{
						OFFSET 0.78828 -1.31380 4.25672
						CHANNELS 3 Xrotation Yrotation Zrotation
						JOINT LeftArm
						{
							OFFSET 3.91513 0.00000 0.00000
							CHANNELS 3 Xrotation Yrotation Zrotation
							JOINT LeftForeArm
							{
								OFFSET 6.91491 0.00000 0.00000
								CHANNELS 3 Xrotation Yrotation Zrotation
								JOINT LeftHand
								{
									OFFSET 6.09622 0.00000 0.00000
									CHANNELS 3 Xrotation Yrotation Zrotation
									JOINT LeftHandEnd
									{
										OFFSET 1.74995 0.00000 0.00000
										CHANNELS 3 Xrotation Yrotation Zrotation
										End Site
										{
											OFFSET 1.74995 0.00000 0.00000
										}
									}
									JOINT LeftHandThumb1
									{
										OFFSET 0.69998 -1.16663 -0.46665
										CHANNELS 3 Yrotation Xrotation Zrotation
										End Site
										{
											OFFSET 1.69032 -0.45292 0.00000
										}
									}
								}
							}
						}
					}
				}
			}
		}
	}
	JOINT RightUpLeg
	{
		OFFSET -2.33857 0.00000 -0.68318
		CHANNELS 3 Xrotation Yrotation Zrotation
		JOINT RightLeg
		{
			OFFSET 0.00000 0.00000 -10.74496
			CHANNELS 3 Xrotation Yrotation Zrotation
			JOINT RightFoot
			{
				OFFSET 0.00000 0.00000 -10.93085
				CHANNELS 3 Xrotation Yrotation Zrotation
				JOINT RightToeBase
				{
					OFFSET 0.00000 -4.08727 -1.48765
					CHANNELS 3 Xrotation Yrotation Zrotation
					End Site
					{
						OFFSET 0.00000 -1.89187 -0.00000
					}
				}
			}
		}
	}
	JOINT LeftUpLeg
	{
		OFFSET 2.33857 0.00000 -0.68318
		CHANNELS 3 Xrotation Yrotation Zrotation
		JOINT LeftLeg
		{
			OFFSET 0.00000 0.00000 -10.74496
			CHANNELS 3 Xrotation Yrotation Zrotation
			JOINT LeftFoot
			{
				OFFSET 0.00000 0.00000 -10.93085
				CHANNELS 3 Xrotation Yrotation Zrotation
				JOINT LeftToeBase
				{
					OFFSET 0.00000 -4.08727 -1.48765
					CHANNELS 3 Xrotation Yrotation Zrotation
					End Site
					{
						OFFSET 0.00000 -1.89187 -0.00000
					}
				}
			}
		}
	}
}
MOTION
Frames: 9
Frame Time:	0.0333333
 1.4845 -114.7366 24.5566 -5.2031 0.8077 174.9079 4.4080 1.7833 0.1887 4.0768 -0.2431 0.2439 -8.6733 2.7824 4.3682 -2.1031 -0.4634 0.7334 -0.5541 -0.4078 -4.5157 4.7414 -3.5864 -7.2172 -16.8639 -0.9393 -1.5670 9.7131 -4.8779 4.1877 0.0000 0.0000 14.6278 -5.1764 14.4519 -7.8390 -0.0000 0.0000 -0.0000 0.0000 -0.0000 0.0000 -16.9352 -3.8887 5.6264 3.4088 5.9146 -14.5915 -0.0000 0.0000 3.0085 2.1536 -5.1311 -1.6251 0.0000 0.0000 -0.0000 0.0000 0.0000 0.0000 -5.9459 -2.4093 -9.0393 -0.1016 0.0000 -0.0000 -0.1661 2.6568 11.3527 0.8056 0.0000 0.0000 -6.1403 -1.0853 -4.0903 3.4148 0.0000 0.0000 -4.6602 2.7357 2.2726 -7.9760 0.0000 -0.0000
 1.4967 -114.7329 24.5564 -5.2966 0.8181 174.9204 4.3553 1.7341 0.2006 4.0448 -0.2763 0.2455 -8.7113 2.8233 4.4335 -2.0944 -0.4375 0.7296 -0.4840 -0.3803 -4.5770 4.7210 -3.5905 -7.2827 -16.8477 -0.8624 -1.5481 9.7190 -4.9365 4.2150 0.0000 0.0000 14.5850 -5.3061 14.4569 -7.7802 0.0000 -0.0000 -0.0000 0.0000 -0.0000 0.0000 -16.9428 -3.9430 5.5697 3.4685 6.0588 -14.5297 -0.0000 0.0000 3.1023 2.2056 -4.9886 -1.6311 -0.0000 -0.0000 -0.0000 0.0000 -0.0000 0.0000 -6.2017 -2.4115 -8.4071 0.2424 0.0000 0.0000 -0.3298 2.7042 10.7103 0.7973 0.0000 0.0000 -6.2553 -1.1191 -4.0496 3.4643 0.0000 0.0000 -4.6593 2.9026 2.1962 -8.0373 0.0000 -0.0000
 1.5183 -114.7199 24.5561 -5.3513 0.8215 174.9934 4.3049 1.6926 0.2093 4.0048 -0.3131 0.2471 -8.7202 2.8165 4.4862 -2.0789 -0.4052 0.7290 -0.3642 -0.3456 -4.6713 4.6795 -3.5724 -7.3866 -16.7876 -0.7366 -1.5153 9.7069 -5.0099 4.2606 0.0000 0.0000 14.5456 -5.4497 14.4207 -7.6998 -0.0000 -0.0000 0.0000 -0.0000 -0.0000 0.0000 -16.9273 -3.9974 5.4737 3.5192 6.2504 -14.3966 -0.0000 0.0000 3.1759 2.2084 -4.8136 -1.6211 0.0000 0.0000 0.0000 0.0000 -0.0000 0.0000 -6.3150 -2.4455 -8.0695 0.4413 0.0000 0.0000 -0.4561 2.7488 10.3058 0.7571 0.0000 0.0000 -6.3001 -1.1673 -4.0259 3.4967 0.0000 0.0000 -4.6881 2.9676 2.1019 -7.9771 0.0000 -0.0000
 1.5440 -114.6992 24.5556 -5.3495 0.8082 175.1364 4.2508 1.6905 0.2096 3.9698 -0.3391 0.2403 -8.6754 2.7385 4.4967 -2.0599 -0.3827 0.7324 -0.2471 -0.3138 -4.7667 4.6522 -3.5497 -7.4775 -16.7372 -0.5725 -1.4925 9.6972 -5.1174 4.3004 0.0000 0.0000 14.5474 -5.4345 14.4167 -7.6463 -0.0000 -0.0000 0.0000 0.0000 -0.0000 -0.0000 -16.8914 -4.0382 5.3792 3.5283 6.4149 -14.2628 -0.0000 0.0000 3.1594 2.1203 -4.7911 -1.6057 -0.0000 0.0000 0.0000 -0.0000 0.0000 0.0000 -6.2299 -2.5080 -8.1266 0.4132 0.0000 0.0000 -0.5073 2.7834 10.2280 0.7195 0.0000 0.0000 -6.2515 -1.2235 -4.0627 3.4920 0.0000 0.0000 -4.7434 2.9077 2.0295 -7.8222 0.0000 -0.0000
 1.5683 -114.6800 24.5551 -5.3508 0.8042 175.2719 4.2279 1.6887 0.2145 3.9413 -0.3499 0.2390 -8.6859 2.6937 4.4965 -2.0494 -0.3779 0.7389 -0.1275 -0.2975 -4.8286 4.6704 -3.5574 -7.5246 -16.7264 -0.4303 -1.4817 9.7142 -5.2295 4.3136 0.0000 0.0000 14.5599 -5.2398 14.4280 -7.6405 0.0000 -0.0000 0.0000 -0.0000 -0.0000 0.0000 -16.8451 -4.0757 5.3250 3.5072 6.5000 -14.2232 -0.0000 0.0000 3.1246 1.9573 -4.9300 -1.6322 -0.0000 -0.0000 0.0000 0.0000 0.0000 0.0000 -6.1560 -2.5588 -8.1418 0.3903 0.0000 0.0000 -0.5661 2.8258 10.1203 0.7091 0.0000 0.0000 -6.2049 -1.2721 -4.1337 3.4777 0.0000 0.0000 -4.7962 2.9152 1.9838 -7.7164 0.0000 -0.0000
 1.5907 -114.6693 24.5545 -5.4549 0.8217 175.3601 4.2163 1.6469 0.2238 3.9348 -0.3599 0.2422 -8.8697 2.7364 4.5329 -2.0553 -0.3772 0.7408 0.0407 -0.2964 -4.8574 4.7302 -3.6043 -7.5438 -16.7292 -0.3553 -1.4812 9.7469 -5.2812 4.3309 0.0000 0.0000 14.5122 -5.0194 14.3271 -7.6389 -0.0000 0.0000 -0.0000 -0.0000 -0.0000 0.0000 -16.8297 -4.1137 5.2481 3.4894 6.5125 -14.1664 -0.0000 0.0000 3.0993 1.7707 -5.0324 -1.6695 0.0000 -0.0000 -0.0000 0.0000 -0.0000 0.0000 -6.2809 -2.5900 -7.9764 0.5003 0.0000 0.0000 -0.6703 2.8937 9.8795 0.7109 0.0000 0.0000 -6.3112 -1.3173 -4.1884 3.5162 0.0000 0.0000 -4.8357 3.1028 1.9266 -7.7268 0.0000 -0.0000
 1.6133 -114.6605 24.5539 -5.5980 0.8462 175.4518 4.2243 1.5938 0.2306 3.9387 -0.3547 0.2500 -9.1355 2.7814 4.5513 -2.0856 -0.3670 0.7302 0.2394 -0.3104 -4.8773 4.8108 -3.6543 -7.5721 -16.7390 -0.3042 -1.4515 9.7727 -5.2877 4.3336 0.0000 0.0000 14.4198 -4.8865 14.0634 -7.6076 0.0000 -0.0000 -0.0000 0.0000 -0.0000 -0.0000 -16.8339 -4.1676 5.1254 3.4745 6.4966 -13.9979 -0.0000 0.0000 3.0484 1.5794 -4.9288 -1.6419 0.0000 -0.0000 0.0000 0.0000 0.0000 0.0000 -6.4208 -2.6227 -8.0169 0.5495 0.0000 0.0000 -0.7539 2.9833 9.8342 0.7111 0.0000 0.0000 -6.4850 -1.3578 -4.2088 3.5916 0.0000 0.0000 -4.8619 3.2936 1.8316 -7.7734 0.0000 -0.0000
 1.6369 -114.6482 24.5534 -5.6734 0.8546 175.5967 4.2722 1.5660 0.2233 3.9531 -0.3336 0.2496 -9.3435 2.7642 4.5115 -2.1407 -0.3536 0.7173 0.3888 -0.3235 -4.9221 4.8769 -3.6776 -7.6219 -16.7834 -0.1728 -1.3817 9.8012 -5.3453 4.3021 0.0000 0.0000 14.3382 -4.8198 13.7710 -7.5828 -0.0000 0.0000 -0.0000 -0.0000 -0.0000 -0.0000 -16.8331 -4.2751 4.9744 3.4789 6.5146 -13.7483 -0.0000 0.0000 2.9490 1.3783 -4.7004 -1.5509 -0.0000 -0.0000 0.0000 0.0000 0.0000 0.0000 -6.3920 -2.6733 -8.4103 0.4290 0.0000 0.0000 -0.7771 3.0647 10.0842 0.7213 0.0000 0.0000 -6.5935 -1.3952 -4.2118 3.6828 0.0000 0.0000 -4.8913 3.2920 1.7038 -7.7722 0.0000 -0.0000
 1.6593 -114.6413 24.5530 -5.7927 0.8628 175.7442 4.3012 1.5373 0.2134 3.9467 -0.3023 0.2514 -9.5151 2.7415 4.4551 -2.1963 -0.3438 0.7082 0.4774 -0.3261 -4.9881 4.8722 -3.6781 -7.6775 -16.8289 -0.0068 -1.2856 9.8258 -5.4000 4.2224 0.0000 0.0000 14.2925 -4.7951 13.5649 -7.6169 -0.0000 0.0000 0.0000 0.0000 -0.0000 0.0000 -16.8034 -4.4081 4.8338 3.5129 6.5328 -13.5387 -0.0000 0.0000 2.8674 1.1778 -4.5322 -1.4898 -0.0000 -0.0000 -0.0000 -0.0000 0.0000 0.0000 -6.4694 -2.7174 -8.7140 0.4007 0.0000 0.0000 -0.8115 3.1086 10.2466 0.7487 0.0000 0.0000 -6.7933 -1.4304 -4.1723 3.8387 0.0000 0.0000 -4.9399 3.2084 1.5430 -7.7429 0.0000 -0.0000
